<?xml version="1.0" encoding="iso-8859-1"?>
<!-- Generator: Adobe Illustrator 16.0.0, SVG Export Plug-In . SVG Version: 6.00 Build 0)  -->
<!DOCTYPE svg PUBLIC "-//W3C//DTD SVG 1.1//EN" "http://www.w3.org/Graphics/SVG/1.1/DTD/svg11.dtd">
<svg version="1.1" id="Capa_1" xmlns="http://www.w3.org/2000/svg" xmlns:xlink="http://www.w3.org/1999/xlink" x="0px" y="0px"
	 width="349.468px" height="349.468px" viewBox="0 0 349.468 349.468" style="enable-background:new 0 0 349.468 349.468;"
	 xml:space="preserve">
<g>
	<g>
		<path d="M328.296,182.33c0.318-50.251-37.278-74.76-70.466-96.368l-0.396-0.258c-7.242-4.735-14.069-9.211-20.116-13.718
			c-28.943-21.692-54.277-55.634-57.238-67.92c-0.597-2.399-2.675-3.984-5.431-4.065c-1.955,0.159-4.213,1.444-4.882,3.903
			c-3.375,12.202-25.487,45.171-57.448,67.332c-5.104,3.549-10.602,7.017-16.955,11.037c-33.204,21.023-74.535,47.201-74.192,99.421
			c0.411,64.611,39.703,94.022,76.021,94.022c23.629,0,46.621-11.625,63.585-32.041c-7.317,35.032-29.619,78.572-93.057,95.32
			c-2.564,0.685-4.245,3.206-3.93,5.843c0.351,2.642,2.63,4.63,5.305,4.63h211.366c2.954,0,5.326-2.379,5.326-5.326
			c0-2.582-1.91-4.918-4.096-5.171c-2.78-0.841-67.26-20.975-89.478-93.542c16.802,17.756,38.978,27.861,61.405,27.88
			C290.508,273.309,327.869,245.17,328.296,182.33z"/>
	</g>
</g>
<g>
</g>
<g>
</g>
<g>
</g>
<g>
</g>
<g>
</g>
<g>
</g>
<g>
</g>
<g>
</g>
<g>
</g>
<g>
</g>
<g>
</g>
<g>
</g>
<g>
</g>
<g>
</g>
<g>
</g>
</svg>
