<?xml version="1.0" encoding="iso-8859-1"?>
<!-- Generator: Adobe Illustrator 21.0.0, SVG Export Plug-In . SVG Version: 6.00 Build 0)  -->
<svg xmlns="http://www.w3.org/2000/svg" xmlns:xlink="http://www.w3.org/1999/xlink" version="1.1" id="Capa_1" x="0px" y="0px" viewBox="0 0 512 512" style="enable-background:new 0 0 512 512;" xml:space="preserve" width="512" height="512">
<path d="M461.159,168.197c-30.311-17.502-80.184-9.788-127.759,4.105c2.514-2.563,5.014-5.17,7.484-7.822  c32.294-34.665,47.993-63.935,47.993-89.48c0-41.355-33.645-75-75-75c-17.644,0-34.785,6.249-48.266,17.595  c-5.688,4.787-13.63,4.787-19.317,0C232.813,6.249,215.672,0,198.029,0c-41.355,0-75,33.645-75,75  c0,31.27,25.236,65.999,56.157,97.474c-47.75-14-97.907-21.848-128.345-4.277C15.027,188.875,2.713,234.835,23.39,270.649  c8.822,15.28,22.805,27,39.371,33.001c6.988,2.532,10.96,9.412,9.659,16.729c-3.085,17.349,0.074,35.317,8.895,50.597  c10.017,17.349,26.189,29.759,45.54,34.944c6.461,1.731,13.019,2.588,19.534,2.588c12.996,0,25.822-3.408,37.377-10.08  c22.124-12.773,39.623-41.003,53.496-86.303c1.334-4.357,2.588-8.721,3.767-13.06L241.025,497c0,8.284,6.716,15,15,15  s15-6.716,15-15l0.002-197.726c1.163,4.271,2.398,8.566,3.711,12.853c13.874,45.299,31.372,73.528,53.496,86.302  c11.782,6.803,24.657,10.033,37.374,10.033c25.938,0,51.203-13.453,65.078-37.485c8.821-15.279,11.98-33.248,8.895-50.596  c-1.301-7.318,2.67-14.198,9.658-16.729c16.566-6.002,30.549-17.722,39.371-33.002C509.287,234.835,496.973,188.875,461.159,168.197  z"/>















</svg>
