<?xml version="1.0" encoding="iso-8859-1"?>
<!-- Generator: Adobe Illustrator 19.0.0, SVG Export Plug-In . SVG Version: 6.00 Build 0)  -->
<svg version="1.1" id="Capa_1" xmlns="http://www.w3.org/2000/svg" xmlns:xlink="http://www.w3.org/1999/xlink" x="0px" y="0px"
	 viewBox="0 0 470 470" style="enable-background:new 0 0 470 470;" xml:space="preserve">
<g>
	<path style="fill:#FAB43E;" d="M385.479,390.26h-48.324c1.857,10.547,11.081,18.589,22.153,18.589h72.756l-13.25-22.252
		c-1.407-2.364-1.407-5.31,0-7.674l13.25-22.252h-16.807c-4.143,0-7.5-3.357-7.5-7.5l-14.777-0.001v33.59
		C392.979,386.902,389.621,390.26,385.479,390.26z"/>
	<path style="fill:#570100;" d="M433.985,382.76l17.716-29.752c1.38-2.317,1.409-5.198,0.076-7.543
		c-1.333-2.346-3.823-3.794-6.521-3.794h-30.001c-4.142,0-7.499,3.357-7.5,7.499c0,4.144,3.357,7.501,7.5,7.501h16.807
		l-13.25,22.252c-1.407,2.364-1.407,5.31,0,7.674l13.25,22.252h-72.756c-11.072,0-20.295-8.042-22.153-18.589h48.324
		c4.143,0,7.5-3.357,7.5-7.5v-67.178c0-4.143-3.357-7.5-7.5-7.5h-25.927c4.955-10.06,7.543-21.11,7.543-32.576
		c0-40.796-33.189-73.985-73.985-73.985c-5.602,0-11.103,0.644-16.424,1.862v-53.507h15.312c20.132,0,36.51-16.378,36.51-36.51
		c0-4.143-3.357-7.5-7.5-7.5s-7.5,3.357-7.5,7.5c0,11.86-9.649,21.51-21.51,21.51h-15.312V83.36
		c0-15.336-8.331-28.754-20.699-35.993c4.569-5.033,7.356-11.711,7.356-19.028C263.343,12.713,250.63,0,235.004,0
		c-15.626,0-28.339,12.713-28.339,28.34c0,7.317,2.788,13.995,7.357,19.028c-12.368,7.238-20.699,20.657-20.699,35.992v51.516
		H178.01c-11.86,0-21.51-9.649-21.51-21.51c0-4.143-3.358-7.5-7.5-7.5s-7.5,3.357-7.5,7.5c0,20.132,16.378,36.51,36.51,36.51h15.312
		v53.52c-5.284-1.213-10.777-1.875-16.424-1.875c-40.796,0-73.985,33.189-73.985,73.985c0,11.466,2.587,22.517,7.542,32.576H84.529
		c-4.142,0-7.5,3.357-7.5,7.5v67.178c0,4.143,3.358,7.5,7.5,7.5h48.318c-1.858,10.547-11.081,18.589-22.153,18.589H37.938
		l13.249-22.252c1.408-2.364,1.408-5.31,0-7.674l-13.249-22.252h16.806c4.142,0,7.5-3.357,7.5-7.5c-0.001-4.143-3.358-7.5-7.5-7.5
		H24.743c-2.698,0-5.187,1.448-6.521,3.794c-1.333,2.345-1.304,5.226,0.076,7.543l17.715,29.752l-17.715,29.752
		c-1.38,2.317-1.409,5.198-0.076,7.543c1.333,2.346,3.823,3.794,6.521,3.794h85.95c19.357,0,35.334-14.742,37.296-33.589h22.955
		l58.079,76.766c1.417,1.873,3.631,2.975,5.981,2.975s4.563-1.102,5.981-2.975l58.079-76.766h22.947
		c1.962,18.846,17.939,33.589,37.296,33.589h85.95c2.697,0,5.188-1.448,6.521-3.794c1.333-2.345,1.304-5.226-0.076-7.543
		L433.985,382.76z M92.029,375.26v-52.178h61.821c4.142,0,7.5-3.357,7.5-7.5c0-4.143-3.358-7.5-7.5-7.5h-26.117
		c-6.429-9.661-9.82-20.845-9.82-32.576c0-32.524,26.461-58.985,58.985-58.985c32.21,0,58.416,26.205,58.416,58.416
		c0,4.143,3.357,7.5,7.5,7.5s7.5-3.357,7.5-7.5c0-11.015-2.454-21.462-6.819-30.848c10.638-17.094,29.317-27.568,49.614-27.568
		c32.524,0,58.985,26.461,58.985,58.985c0,11.73-3.391,22.915-9.82,32.576H183.85c-4.142,0-7.5,3.357-7.5,7.5
		c0,4.143,3.358,7.5,7.5,7.5h194.129v52.178H92.029z M221.665,28.34c0-7.355,5.984-13.34,13.339-13.34s13.339,5.984,13.339,13.34
		s-5.983,13.339-13.339,13.339S221.665,35.695,221.665,28.34z M235.004,56.679c14.712,0,26.682,11.97,26.682,26.682v51.516h-53.363
		V83.36C208.322,68.648,220.292,56.679,235.004,56.679z M208.322,149.876h19.182v48.741c0,4.141,3.356,7.498,7.496,7.5
		c4.146,0,7.504-3.357,7.504-7.5v-48.741h19.182v58.697c-10.38,4.913-19.548,12.24-26.686,21.486
		c-7.071-9.059-16.188-16.469-26.678-21.458V149.876z M280.254,390.26l-45.25,59.81l-45.25-59.81H280.254z"/>
	<path style="fill:#C4C4C4;" d="M261.686,208.573v-58.697h-19.182v48.741c0,4.143-3.357,7.5-7.5,7.5
		c-0.004,0-0.004,23.941-0.004,23.941C242.138,220.813,251.306,213.486,261.686,208.573z"/>
	<path style="fill:#F0F0F0;" d="M234.971,230.098C235,230.059,235,206.117,235,206.117c-4.14-0.002-7.496-3.359-7.496-7.5v-48.741
		h-19.182v58.725C218.812,213.59,227.929,221,234.971,230.098z"/>
	<path style="fill:#FAB43E;" d="M248.343,28.34c0-7.355-5.983-13.34-13.339-13.34s-13.339,5.984-13.339,13.34
		s5.984,13.339,13.339,13.339S248.343,35.695,248.343,28.34z"/>
	<path style="fill:#C3F2AA;" d="M208.322,134.876h53.363V83.36c0-14.712-11.97-26.682-26.682-26.682
		c-14.712,0-26.682,11.97-26.682,26.682V134.876z"/>
	<path style="fill:#FAB43E;" d="M54.744,356.671H37.938l13.249,22.252c1.408,2.364,1.408,5.31,0,7.674l-13.249,22.252h72.755
		c11.072,0,20.296-8.042,22.153-18.589H84.529c-4.142,0-7.5-3.357-7.5-7.5v-33.59H62.244
		C62.244,353.313,58.886,356.671,54.744,356.671z"/>
	<path style="fill:#FDF3C2;" d="M377.979,375.26v-52.178H183.85c-4.142,0-7.5-3.357-7.5-7.5l-15,0c0,4.143-3.358,7.5-7.5,7.5H92.029
		v52.178H377.979z"/>
	<polygon style="fill:#F53635;" points="280.254,390.26 189.753,390.26 235.004,450.069 	"/>
	<path style="fill:#F53635;" d="M183.85,308.082h158.425c6.429-9.662,9.82-20.846,9.82-32.576c0-32.524-26.461-58.985-58.985-58.985
		c-20.297,0-38.977,10.474-49.614,27.568c4.365,9.386,6.819,19.833,6.819,30.848c0,4.143-3.357,7.5-7.5,7.5s-7.5-3.357-7.5-7.5
		c0-32.211-26.206-58.416-58.416-58.416c-32.524,0-58.985,26.461-58.985,58.985c0,11.731,3.391,22.915,9.82,32.576h26.117
		c4.142,0,7.5,3.357,7.5,7.5h15C176.35,311.439,179.708,308.082,183.85,308.082z"/>
</g>
<g>
</g>
<g>
</g>
<g>
</g>
<g>
</g>
<g>
</g>
<g>
</g>
<g>
</g>
<g>
</g>
<g>
</g>
<g>
</g>
<g>
</g>
<g>
</g>
<g>
</g>
<g>
</g>
<g>
</g>
</svg>
